<svg width="25" height="26" viewBox="0 0 25 26" fill="none" xmlns="http://www.w3.org/2000/svg">
<g clip-path="url(#clip0_159_284)">
<path d="M4.91173 7.77806L4.93941 6.24532C4.95113 5.59633 5.48532 5.08108 6.1308 5.09619L19.5492 5.33505C20.1982 5.34677 20.7134 5.88096 20.6983 6.52644L20.456 19.9482C20.4442 20.5972 19.9101 21.1125 19.2646 21.0974L17.7318 21.0697C17.0759 21.0578 16.5576 20.5063 16.5832 19.8507L16.9267 11.7314L6.82614 21.4736C6.35872 21.9245 5.61997 21.9111 5.16913 21.4437L4.0844 20.3191C3.63356 19.8517 3.6469 19.1129 4.11432 18.6621L14.2148 8.91987L6.08848 8.96995C5.42881 8.97531 4.89637 8.43735 4.91173 7.77806Z" fill="#2285D7"/>
</g>
<defs>
<clipPath id="clip0_159_284">
<rect width="25" height="25" fill="white" transform="translate(0 0.786133)"/>
</clipPath>
</defs>
</svg>
