<svg width="29" height="29" viewBox="0 0 29 29" fill="none" xmlns="http://www.w3.org/2000/svg">
<path fill-rule="evenodd" clip-rule="evenodd" d="M14.5 7.99308C17.0139 5.41027 23.2979 9.93246 14.5 15.7451C5.70213 9.93246 11.9861 5.41208 14.5 7.99671V7.99308Z" fill="#333333"/>
<path d="M3.625 3.625C3.625 2.66359 4.00692 1.74156 4.68674 1.06174C5.36656 0.381919 6.28859 0 7.25 0L21.75 0C22.7114 0 23.6334 0.381919 24.3133 1.06174C24.9931 1.74156 25.375 2.66359 25.375 3.625V28.0938C25.3749 28.2577 25.3304 28.4185 25.2461 28.5591C25.1618 28.6997 25.041 28.8149 24.8965 28.8922C24.752 28.9696 24.5892 29.0063 24.4254 28.9985C24.2617 28.9907 24.1032 28.9386 23.9667 28.8478L14.5 23.7456L5.03331 28.8478C4.89684 28.9386 4.73829 28.9907 4.57455 28.9985C4.41081 29.0063 4.24802 28.9696 4.1035 28.8922C3.95898 28.8149 3.83816 28.6997 3.75389 28.5591C3.66963 28.4185 3.62508 28.2577 3.625 28.0938V3.625ZM7.25 1.8125C6.76929 1.8125 6.30828 2.00346 5.96837 2.34337C5.62846 2.68328 5.4375 3.1443 5.4375 3.625V26.4009L13.9979 21.9023C14.1467 21.8033 14.3213 21.7505 14.5 21.7505C14.6787 21.7505 14.8533 21.8033 15.0021 21.9023L23.5625 26.4009V3.625C23.5625 3.1443 23.3715 2.68328 23.0316 2.34337C22.6917 2.00346 22.2307 1.8125 21.75 1.8125H7.25Z" fill="#333333"/>
</svg>
