<svg width="1920" height="747" viewBox="0 0 1920 747" fill="none" xmlns="http://www.w3.org/2000/svg">
<circle cx="1220" cy="175.5" r="175.5" fill="#EEEBAE" fill-opacity="0.8"/>
<rect x="-33" y="281" width="398" height="398" fill="#5CB1F6" fill-opacity="0.8"/>
<path d="M1707.5 264L1929.64 626.25H1485.36L1707.5 264Z" fill="#AEEEC9" fill-opacity="0.8"/>
<circle cx="222.911" cy="182.875" r="4.875" fill="#555555" fill-opacity="0.2"/>
<circle cx="222.911" cy="212.125" r="4.875" fill="#555555" fill-opacity="0.2"/>
<circle cx="222.911" cy="241.375" r="4.875" fill="#555555" fill-opacity="0.2"/>
<circle cx="222.911" cy="270.625" r="4.875" fill="#555555" fill-opacity="0.2"/>
<circle cx="222.911" cy="299.875" r="4.875" fill="#555555" fill-opacity="0.2"/>
<circle cx="222.911" cy="329.125" r="4.875" fill="#555555" fill-opacity="0.2"/>
<circle cx="253.554" cy="182.875" r="4.875" fill="#555555" fill-opacity="0.2"/>
<circle cx="253.554" cy="212.125" r="4.875" fill="#555555" fill-opacity="0.2"/>
<circle cx="253.554" cy="241.375" r="4.875" fill="#555555" fill-opacity="0.2"/>
<circle cx="253.554" cy="270.625" r="4.875" fill="#555555" fill-opacity="0.2"/>
<circle cx="253.554" cy="299.875" r="4.875" fill="#555555" fill-opacity="0.2"/>
<circle cx="253.554" cy="329.125" r="4.875" fill="#555555" fill-opacity="0.2"/>
<circle cx="284.196" cy="182.875" r="4.875" fill="#555555" fill-opacity="0.2"/>
<circle cx="284.196" cy="212.125" r="4.875" fill="#555555" fill-opacity="0.2"/>
<circle cx="284.196" cy="241.375" r="4.875" fill="#555555" fill-opacity="0.2"/>
<circle cx="284.196" cy="270.625" r="4.875" fill="#555555" fill-opacity="0.2"/>
<circle cx="284.196" cy="299.875" r="4.875" fill="#555555" fill-opacity="0.2"/>
<circle cx="284.196" cy="329.125" r="4.875" fill="#555555" fill-opacity="0.2"/>
<circle cx="314.839" cy="182.875" r="4.875" fill="#555555" fill-opacity="0.2"/>
<circle cx="314.839" cy="212.125" r="4.875" fill="#555555" fill-opacity="0.2"/>
<circle cx="314.839" cy="241.375" r="4.875" fill="#555555" fill-opacity="0.2"/>
<circle cx="314.839" cy="270.625" r="4.875" fill="#555555" fill-opacity="0.2"/>
<circle cx="314.839" cy="299.875" r="4.875" fill="#555555" fill-opacity="0.2"/>
<circle cx="314.839" cy="329.125" r="4.875" fill="#555555" fill-opacity="0.2"/>
<circle cx="345.482" cy="182.875" r="4.875" fill="#555555" fill-opacity="0.2"/>
<circle cx="345.482" cy="212.125" r="4.875" fill="#555555" fill-opacity="0.2"/>
<circle cx="345.482" cy="241.375" r="4.875" fill="#555555" fill-opacity="0.2"/>
<circle cx="345.482" cy="270.625" r="4.875" fill="#555555" fill-opacity="0.2"/>
<circle cx="345.482" cy="299.875" r="4.875" fill="#555555" fill-opacity="0.2"/>
<circle cx="345.482" cy="329.125" r="4.875" fill="#555555" fill-opacity="0.2"/>
<circle cx="376.125" cy="182.875" r="4.875" fill="#555555" fill-opacity="0.2"/>
<circle cx="376.125" cy="212.125" r="4.875" fill="#555555" fill-opacity="0.2"/>
<circle cx="376.125" cy="241.375" r="4.875" fill="#555555" fill-opacity="0.2"/>
<circle cx="376.125" cy="270.625" r="4.875" fill="#555555" fill-opacity="0.2"/>
<circle cx="376.125" cy="299.875" r="4.875" fill="#555555" fill-opacity="0.2"/>
<circle cx="376.125" cy="329.125" r="4.875" fill="#555555" fill-opacity="0.2"/>
</svg>
