<svg width="36" height="36" viewBox="0 0 36 36" fill="none" xmlns="http://www.w3.org/2000/svg">
<path d="M23.625 3.41016L22.8867 4.21875C21.2344 6.03809 19.8721 6.85107 18.7383 7.38281C17.6045 7.91455 16.6509 8.07275 15.7148 8.78906C14.7173 9.55371 13.2671 11.0215 12.6562 13.6406C11.3467 13.9263 10.3887 14.4272 9.63281 15.082C8.88574 15.728 8.32324 16.4619 7.62891 17.2617C7.62451 17.2705 7.6333 17.2881 7.62891 17.2969C6.63574 18.4395 5.76562 19.6699 4.07812 20.3203L3.375 20.6016V32.625H24.8203C26.0508 32.5591 26.9033 31.7065 27.4219 30.8672C27.9404 30.0278 28.2261 29.1182 28.3711 28.3711C28.7446 26.4683 29.4258 20.9883 29.4258 20.9883L29.4609 20.8828V20.7773C29.4258 20.0171 29.1138 19.3711 28.7227 18.7734L29.9883 15.0117L31.9922 11.9883L32.5547 11.1797L31.8164 10.5117L24.4336 4.11328L23.625 3.41016ZM23.6953 6.50391L29.5664 11.6016L28.0195 13.8867L27.9141 13.9922L27.8789 14.168L26.8594 17.1914C26.3276 16.9717 25.7783 16.8179 25.1719 16.8398H25.1016L18 16.875H16.875V21.2344C16.7168 22.4604 16.0356 22.9351 15.1875 23.2734C14.9062 23.3877 14.8711 23.3262 14.625 23.3789V16.8398C14.4404 12.6694 15.9258 11.4697 17.0859 10.582C17.4067 10.3359 18.3472 10.0503 19.6875 9.42188C20.8081 8.89453 22.2012 7.94971 23.6953 6.50391ZM12.4453 16.1719C12.4409 16.4268 12.3618 16.6069 12.375 16.875C12.375 16.8882 12.375 16.897 12.375 16.9102V25.875H13.5C13.5 25.875 14.7041 25.8618 15.9961 25.3477C17.2881 24.8335 18.8481 23.6294 19.125 21.5156V19.125L25.1719 19.0898H25.207C26.2441 19.0327 27.1055 19.8193 27.1758 20.8477C27.1714 20.8652 27.1187 21.2827 27.1055 21.375H22.5V23.625H26.8242C26.7056 24.4951 26.5957 25.04 26.4727 25.875H22.5V28.125H26.1211C26.0024 28.626 25.7651 29.2236 25.4883 29.6719C25.1807 30.1729 24.917 30.3618 24.6797 30.375H5.625V21.9727C7.44873 21.0059 8.58252 19.6128 9.31641 18.7734C10.0767 17.9033 10.5996 17.2441 11.1094 16.8047C11.4434 16.519 11.9663 16.3564 12.4453 16.1719Z" fill="#333333"/>
</svg>
