<svg width="36" height="36" viewBox="0 0 36 36" fill="none" xmlns="http://www.w3.org/2000/svg">
<path d="M12.1289 5.625C7.30371 5.625 3.375 9.33838 3.375 13.9043C3.375 14.1504 3.39697 14.3833 3.41455 14.625H5.66895C5.64697 14.3877 5.625 14.1504 5.625 13.9043C5.625 10.582 8.54297 7.875 12.1289 7.875C13.7681 7.875 15.3325 8.44189 16.5366 9.47021L18 10.7227L19.4634 9.47021C20.6631 8.44189 22.2275 7.875 23.8711 7.875C27.457 7.875 30.375 10.582 30.375 13.9043C30.375 19.6655 24.9478 23.0801 20.584 25.8267C19.5864 26.4507 18.7119 27.0044 18 27.5273C17.2881 27.0044 16.4136 26.4507 15.416 25.8267C13.3813 24.5479 11.1182 23.1196 9.27686 21.375H6.22266C8.45068 24.0864 11.606 26.0859 14.2207 27.7339C15.3149 28.4194 16.2554 29.0127 16.9233 29.5356C16.9233 29.5356 17.9912 30.3662 18 30.375C18.0044 30.3662 19.0723 29.5356 19.0723 29.5356C19.7402 29.0127 20.6807 28.4194 21.7793 27.7339C26.354 24.8511 32.625 20.9092 32.625 13.9043C32.625 9.33838 28.6963 5.625 23.8711 5.625C21.6782 5.625 19.5996 6.38965 18 7.76074C16.4004 6.38965 14.3174 5.625 12.1289 5.625ZM13.4648 10.5601L10.8369 17.1211L10.5908 16.875H3.375V19.125H9.65918L11.6587 21.1289L13.5352 16.4399L16.9102 24.3149L19.2393 18.4922L19.5557 19.125H21.6782C22.0825 19.8193 22.8208 20.25 23.625 20.25C24.8687 20.25 25.875 19.2437 25.875 18C25.875 16.7563 24.8687 15.75 23.625 15.75C22.8208 15.75 22.0781 16.1807 21.6782 16.875H20.9443L19.0107 13.0078L16.8398 18.4351L13.4648 10.5601Z" fill="#333333"/>
</svg>
