<svg width="29" height="29" viewBox="0 0 29 29" fill="none" xmlns="http://www.w3.org/2000/svg">
<g clip-path="url(#clip0_159_113)">
<path d="M14.5 27.1875C11.1351 27.1875 7.90795 25.8508 5.52858 23.4714C3.14921 21.092 1.8125 17.8649 1.8125 14.5C1.8125 11.1351 3.14921 7.90795 5.52858 5.52858C7.90795 3.14921 11.1351 1.8125 14.5 1.8125C17.8649 1.8125 21.092 3.14921 23.4714 5.52858C25.8508 7.90795 27.1875 11.1351 27.1875 14.5C27.1875 17.8649 25.8508 21.092 23.4714 23.4714C21.092 25.8508 17.8649 27.1875 14.5 27.1875ZM14.5 29C18.3456 29 22.0338 27.4723 24.753 24.753C27.4723 22.0338 29 18.3456 29 14.5C29 10.6544 27.4723 6.96623 24.753 4.24695C22.0338 1.52767 18.3456 0 14.5 0C10.6544 0 6.96623 1.52767 4.24695 4.24695C1.52767 6.96623 0 10.6544 0 14.5C0 18.3456 1.52767 22.0338 4.24695 24.753C6.96623 27.4723 10.6544 29 14.5 29Z" fill="#333333"/>
<path d="M16.1856 11.9407L12.035 12.4609L11.8863 13.1497L12.702 13.3001C13.2348 13.427 13.34 13.6191 13.224 14.1502L11.8863 20.4359C11.5347 22.0617 12.0767 22.8266 13.3508 22.8266C14.3387 22.8266 15.486 22.3699 16.0062 21.7427L16.1657 20.9887C15.8032 21.3077 15.2739 21.4346 14.9223 21.4346C14.4238 21.4346 14.2426 21.0848 14.3713 20.4686L16.1856 11.9407ZM16.3125 8.15625C16.3125 8.63695 16.1215 9.09797 15.7816 9.43788C15.4417 9.77779 14.9807 9.96875 14.5 9.96875C14.0193 9.96875 13.5583 9.77779 13.2183 9.43788C12.8784 9.09797 12.6875 8.63695 12.6875 8.15625C12.6875 7.67554 12.8784 7.21453 13.2183 6.87462C13.5583 6.53471 14.0193 6.34375 14.5 6.34375C14.9807 6.34375 15.4417 6.53471 15.7816 6.87462C16.1215 7.21453 16.3125 7.67554 16.3125 8.15625Z" fill="#333333"/>
</g>
<defs>
<clipPath id="clip0_159_113">
<rect width="29" height="29" fill="white"/>
</clipPath>
</defs>
</svg>
