<svg width="29" height="29" viewBox="0 0 29 29" fill="none" xmlns="http://www.w3.org/2000/svg">
<path fill-rule="evenodd" clip-rule="evenodd" d="M10.875 1.8125H21.75V14.5C21.75 14.6603 21.7075 14.8178 21.6268 14.9564C21.5461 15.0949 21.4301 15.2096 21.2906 15.2886C21.1511 15.3677 20.9931 15.4083 20.8328 15.4064C20.6724 15.4044 20.5155 15.36 20.3779 15.2776L16.3125 12.8379L12.2471 15.2794C12.1094 15.3619 11.9523 15.4063 11.7918 15.4082C11.6313 15.4101 11.4732 15.3693 11.3336 15.29C11.1941 15.2107 11.0781 15.0958 10.9975 14.957C10.9169 14.8182 10.8746 14.6605 10.875 14.5V1.8125Z" fill="#333333"/>
<path d="M5.4375 0H23.5625C24.5239 0 25.4459 0.381919 26.1258 1.06174C26.8056 1.74156 27.1875 2.66359 27.1875 3.625V25.375C27.1875 26.3364 26.8056 27.2584 26.1258 27.9383C25.4459 28.6181 24.5239 29 23.5625 29H5.4375C4.47609 29 3.55406 28.6181 2.87424 27.9383C2.19442 27.2584 1.8125 26.3364 1.8125 25.375V23.5625H3.625V25.375C3.625 25.8557 3.81596 26.3167 4.15587 26.6566C4.49578 26.9965 4.95679 27.1875 5.4375 27.1875H23.5625C24.0432 27.1875 24.5042 26.9965 24.8441 26.6566C25.184 26.3167 25.375 25.8557 25.375 25.375V3.625C25.375 3.14429 25.184 2.68328 24.8441 2.34337C24.5042 2.00346 24.0432 1.8125 23.5625 1.8125H5.4375C4.95679 1.8125 4.49578 2.00346 4.15587 2.34337C3.81596 2.68328 3.625 3.14429 3.625 3.625V5.4375H1.8125V3.625C1.8125 2.66359 2.19442 1.74156 2.87424 1.06174C3.55406 0.381919 4.47609 0 5.4375 0V0Z" fill="#333333"/>
<path d="M1.8125 9.0625V8.15625C1.8125 7.9159 1.90798 7.68539 2.07793 7.51543C2.24789 7.34548 2.4784 7.25 2.71875 7.25C2.9591 7.25 3.18961 7.34548 3.35957 7.51543C3.52952 7.68539 3.625 7.9159 3.625 8.15625V9.0625H4.53125C4.7716 9.0625 5.00211 9.15798 5.17207 9.32793C5.34202 9.49789 5.4375 9.7284 5.4375 9.96875C5.4375 10.2091 5.34202 10.4396 5.17207 10.6096C5.00211 10.7795 4.7716 10.875 4.53125 10.875H0.90625C0.665898 10.875 0.435389 10.7795 0.265435 10.6096C0.0954797 10.4396 0 10.2091 0 9.96875C0 9.7284 0.0954797 9.49789 0.265435 9.32793C0.435389 9.15798 0.665898 9.0625 0.90625 9.0625H1.8125ZM1.8125 14.5V13.5938C1.8125 13.3534 1.90798 13.1229 2.07793 12.9529C2.24789 12.783 2.4784 12.6875 2.71875 12.6875C2.9591 12.6875 3.18961 12.783 3.35957 12.9529C3.52952 13.1229 3.625 13.3534 3.625 13.5938V14.5H4.53125C4.7716 14.5 5.00211 14.5955 5.17207 14.7654C5.34202 14.9354 5.4375 15.1659 5.4375 15.4062C5.4375 15.6466 5.34202 15.8771 5.17207 16.0471C5.00211 16.217 4.7716 16.3125 4.53125 16.3125H0.90625C0.665898 16.3125 0.435389 16.217 0.265435 16.0471C0.0954797 15.8771 0 15.6466 0 15.4062C0 15.1659 0.0954797 14.9354 0.265435 14.7654C0.435389 14.5955 0.665898 14.5 0.90625 14.5H1.8125ZM1.8125 19.9375V19.0312C1.8125 18.7909 1.90798 18.5604 2.07793 18.3904C2.24789 18.2205 2.4784 18.125 2.71875 18.125C2.9591 18.125 3.18961 18.2205 3.35957 18.3904C3.52952 18.5604 3.625 18.7909 3.625 19.0312V19.9375H4.53125C4.7716 19.9375 5.00211 20.033 5.17207 20.2029C5.34202 20.3729 5.4375 20.6034 5.4375 20.8438C5.4375 21.0841 5.34202 21.3146 5.17207 21.4846C5.00211 21.6545 4.7716 21.75 4.53125 21.75H0.90625C0.665898 21.75 0.435389 21.6545 0.265435 21.4846C0.0954797 21.3146 0 21.0841 0 20.8438C0 20.6034 0.0954797 20.3729 0.265435 20.2029C0.435389 20.033 0.665898 19.9375 0.90625 19.9375H1.8125Z" fill="#333333"/>
</svg>
