<svg width="15" height="14" viewBox="0 0 15 14" fill="none" xmlns="http://www.w3.org/2000/svg">
<path d="M13.7854 8.18734C13.6045 8.18734 13.431 8.25922 13.3031 8.38718C13.1752 8.51513 13.1033 8.68867 13.1033 8.86962V11.5987C13.1033 11.7797 13.0315 11.9532 12.9036 12.0812C12.7757 12.2091 12.6022 12.281 12.4213 12.281H2.87313C2.69225 12.281 2.51877 12.2091 2.39087 12.0812C2.26297 11.9532 2.19112 11.7797 2.19112 11.5987V8.86962C2.19112 8.68867 2.11926 8.51513 1.99136 8.38718C1.86346 8.25922 1.68998 8.18734 1.5091 8.18734C1.32822 8.18734 1.15475 8.25922 1.02684 8.38718C0.898942 8.51513 0.827087 8.68867 0.827087 8.86962V11.5987C0.827087 12.1416 1.04265 12.6622 1.42636 13.0461C1.81007 13.4299 2.33048 13.6456 2.87313 13.6456H12.4213C12.964 13.6456 13.4844 13.4299 13.8681 13.0461C14.2518 12.6622 14.4674 12.1416 14.4674 11.5987V8.86962C14.4674 8.68867 14.3955 8.51513 14.2676 8.38718C14.1397 8.25922 13.9662 8.18734 13.7854 8.18734ZM7.163 9.35404C7.22786 9.41615 7.30434 9.46484 7.38806 9.49732C7.4697 9.53341 7.55797 9.55206 7.64723 9.55206C7.73648 9.55206 7.82475 9.53341 7.90639 9.49732C7.99011 9.46484 8.06659 9.41615 8.13146 9.35404L10.8595 6.62492C10.9879 6.49645 11.0601 6.3222 11.0601 6.14051C11.0601 5.95881 10.9879 5.78456 10.8595 5.65609C10.7311 5.52761 10.5569 5.45544 10.3753 5.45544C10.1937 5.45544 10.0195 5.52761 9.89105 5.65609L8.32924 7.22533V0.682279C8.32924 0.501327 8.25738 0.327787 8.12948 0.199835C8.00158 0.0718827 7.82811 0 7.64723 0C7.46634 0 7.29287 0.0718827 7.16497 0.199835C7.03707 0.327787 6.96521 0.501327 6.96521 0.682279V7.22533L5.4034 5.65609C5.33981 5.59247 5.26432 5.54201 5.18123 5.50758C5.09815 5.47316 5.0091 5.45544 4.91917 5.45544C4.82924 5.45544 4.74019 5.47316 4.65711 5.50758C4.57402 5.54201 4.49853 5.59247 4.43494 5.65609C4.37135 5.7197 4.32091 5.79522 4.28649 5.87834C4.25208 5.96146 4.23437 6.05054 4.23437 6.14051C4.23437 6.23047 4.25208 6.31956 4.28649 6.40267C4.32091 6.48579 4.37135 6.56131 4.43494 6.62492L7.163 9.35404Z" fill="white"/>
</svg>
